<?xml version="1.0" encoding="UTF-8"?>
<svg width="55px" height="56px" viewBox="0 0 55 56" version="1.1" xmlns="http://www.w3.org/2000/svg" xmlns:xlink="http://www.w3.org/1999/xlink">
    <title>customer-focused</title>
    <g id="About" stroke="none" stroke-width="1" fill="none" fill-rule="evenodd" stroke-linejoin="round">
        <g id="Desktop-HD" transform="translate(-1558.000000, -3023.000000)" stroke-width="2">
            <g id="customer-focused" transform="translate(1559.000000, 3024.000000)">
                <path d="M33.4782609,37.0652174 C36.1086957,37.0652174 38.2608696,34.5543478 38.2608696,32.2826087 L38.2608696,21.5217391 C38.2608696,17.576087 30.4891304,15.5434783 26.3043478,15.5434783 C22.1195652,15.5434783 14.3478261,17.576087 14.3478261,21.5217391 L14.3478261,32.2826087 C14.3478261,34.5543478 16.5,37.0652174 19.1304348,37.0652174" id="Path" stroke="#0096FF"></path>
                <path d="M47.826087,39.4565217 C50.0978261,39.4565217 52.6086957,38.1413043 52.6086957,35.8695652 L52.6086957,25.1086957 C52.6086957,21.1630435 45.5543478,19.1304348 41.8478261,19.1304348 C41.4891304,19.1304348 41.1304348,19.1304348 40.6521739,19.1304348" id="Path" stroke="#FFFFFF"></path>
                <path d="M26.3043478,11.9565217 C29.0543478,11.9565217 31.0869565,10.0434783 31.0869565,7.17391304 L31.0869565,4.7826087 C31.0869565,1.91304348 29.0543478,0 26.3043478,0 C23.5543478,0 21.5217391,1.91304348 21.5217391,4.7826087 L21.5217391,7.17391304 C21.5217391,10.0434783 23.5543478,11.9565217 26.3043478,11.9565217 Z" id="Path" stroke="#0096FF"></path>
                <line x1="47.826087" y1="55" x2="47.826087" y2="27.5" id="Path" stroke="#FFFFFF"></line>
                <line x1="33.4782609" y1="55" x2="33.4782609" y2="23.9130435" id="Path" stroke="#0096FF"></line>
                <line x1="19.1304348" y1="23.9130435" x2="19.1304348" y2="55" id="Path" stroke="#0096FF"></line>
                <line x1="26.3043478" y1="35.8695652" x2="26.3043478" y2="55" id="Path" stroke="#0096FF"></line>
                <path d="M41.8478261,15.5434783 C44.5978261,15.5434783 46.6304348,13.6304348 46.6304348,10.7608696 L46.6304348,8.36956522 C46.6304348,5.5 44.5978261,3.58695652 41.8478261,3.58695652 C39.0978261,3.58695652 37.0652174,5.5 37.0652174,8.36956522 L37.0652174,10.7608696 C37.0652174,13.6304348 39.0978261,15.5434783 41.8478261,15.5434783 Z" id="Path" stroke="#FFFFFF"></path>
                <path d="M4.7826087,39.4565217 C2.51086957,39.4565217 0,38.1413043 0,35.8695652 L0,25.1086957 C0,21.1630435 7.05434783,19.1304348 10.7608696,19.1304348 C11.1195652,19.1304348 11.4782609,19.1304348 11.9565217,19.1304348" id="Path" stroke="#FFFFFF"></path>
                <line x1="4.7826087" y1="55" x2="4.7826087" y2="27.5" id="Path" stroke="#FFFFFF"></line>
                <path d="M10.7608696,15.5434783 C8.01086957,15.5434783 5.97826087,13.6304348 5.97826087,10.7608696 L5.97826087,8.36956522 C5.97826087,5.5 8.01086957,3.58695652 10.7608696,3.58695652 C13.5108696,3.58695652 15.5434783,5.5 15.5434783,8.36956522 L15.5434783,10.7608696 C15.5434783,13.6304348 13.5108696,15.5434783 10.7608696,15.5434783 Z" id="Path" stroke="#FFFFFF"></path>
            </g>
        </g>
    </g>
</svg>