<?xml version="1.0" encoding="UTF-8"?>
<svg width="62px" height="57px" viewBox="0 0 62 57" version="1.1" xmlns="http://www.w3.org/2000/svg" xmlns:xlink="http://www.w3.org/1999/xlink">
    <title>manage-server</title>
    <g id="VPS" stroke="none" stroke-width="1" fill="none" fill-rule="evenodd" stroke-linejoin="round">
        <g id="Desktop-HD" transform="translate(-1249.000000, -2600.000000)">
            <g id="manage-server" transform="translate(1250.000000, 2601.000000)">
                <path d="M37.673031,14.5704057 L35.1789976,8.53221957 L31.50358,9.71360382 C30.4534606,8.26968974 29.2720764,7.08830549 27.8281623,6.03818616 L29.0095465,2.3627685 L23.1026253,0 L21.3961814,3.41288783 C19.6897375,3.150358 17.9832936,3.150358 16.2768496,3.41288783 L14.5704057,0 L8.53221957,2.49403341 L9.71360382,6.16945107 C8.26968974,7.21957041 7.08830549,8.40095465 6.03818616,9.84486874 L2.3627685,8.66348449 L0,14.5704057 L3.41288783,16.2768496 C3.150358,17.9832936 3.150358,19.6897375 3.41288783,21.3961814 L0,23.1026253 L2.49403341,29.1408115 L6.16945107,27.9594272 C7.21957041,29.4033413 8.40095465,30.5847255 9.84486874,31.6348449 L8.66348449,35.3102625 L14.7016706,37.8042959 L16.4081146,34.3914081 C18.1145585,34.6539379 19.8210024,34.6539379 21.5274463,34.3914081 L23.2338902,37.8042959 L29.2720764,35.3102625 L28.0906921,31.6348449 C29.5346062,30.5847255 30.7159905,29.4033413 31.7661098,27.9594272 L35.4415274,29.1408115 L37.9355609,23.1026253 L34.522673,21.3961814 C34.7852029,19.6897375 34.7852029,17.9832936 34.522673,16.2768496 L37.673031,14.5704057 Z" id="Path" stroke="#FFFFFF" stroke-width="2"></path>
                <circle id="Oval" stroke="#FFFFFF" stroke-width="1.99994228" transform="translate(18.911783, 18.842291) rotate(-67.492085) translate(-18.911783, -18.842291) " cx="18.9117828" cy="18.8422912" r="6.30053415"></circle>
                <path d="M42.6610979,17.326969 C43.5799523,15.0954654 46.0739857,14.0453461 48.3054893,14.9642005 C50.5369928,15.8830549 51.5871122,18.3770883 50.6682578,20.6085919 C50.274463,21.5274463 49.6181384,22.1837709 48.8305489,22.7088305" id="Path" stroke="#0096FF" stroke-width="2"></path>
                <path d="M58.9379475,38.9856802 L57.2315036,34.7852029 L54.0811456,36.097852 C53.424821,35.1789976 52.6372315,34.3914081 51.7183771,33.7350835 L53.0310263,30.5847255 L48.8305489,28.8782816 L47.5178998,32.0286396 C46.4677804,31.8973747 45.4176611,31.8973747 44.2362768,32.0286396 L42.9236277,28.8782816 L38.7231504,30.5847255 L40.0357995,33.7350835 C39.1169451,34.3914081 38.3293556,35.1789976 37.673031,36.097852 L34.522673,34.7852029 L32.8162291,38.9856802 L35.9665871,40.2983294 C35.8353222,41.3484487 35.8353222,42.398568 35.9665871,43.5799523 L32.8162291,44.8926014 L34.522673,49.0930788 L37.673031,47.7804296 C38.3293556,48.699284 39.1169451,49.4868735 40.0357995,50.1431981 L38.7231504,53.2935561 L42.9236277,55 L44.2362768,51.849642 C45.2863962,51.9809069 46.3365155,51.9809069 47.5178998,51.849642 L48.8305489,55 L53.0310263,53.2935561 L51.7183771,50.1431981 C52.6372315,49.4868735 53.424821,48.699284 54.0811456,47.7804296 L57.2315036,49.0930788 L58.9379475,44.8926014 L55.7875895,43.5799523 C55.9188544,42.5298329 55.9188544,41.4797136 55.7875895,40.2983294 L58.9379475,38.9856802 Z" id="Path" stroke="#FFFFFF" stroke-width="2"></path>
                <path d="M54.0811456,25.071599 L57.1002387,26.5155131 L59.0692124,22.5775656 L56.0501193,21.1336516 C56.3126492,20.0835322 56.3126492,19.0334129 56.1813842,17.9832936 L59.3317422,16.9331742 L57.8878282,12.7326969 L54.7374702,13.7828162 C54.2124105,12.8639618 53.424821,12.0763723 52.6372315,11.4200477 L54.0811456,8.40095465 L50.1431981,6.43198091 L48.699284,9.45107399 C47.6491647,9.18854415 46.5990453,9.18854415 45.548926,9.31980907 L44.4988067,6.16945107 L40.2983294,7.61336516 L41.3484487,10.7637232" id="Path" stroke="#0096FF" stroke-width="2"></path>
                <circle id="Oval" stroke="#FFFFFF" stroke-width="2" cx="45.9427208" cy="42.0047733" r="3.93794749"></circle>
            </g>
        </g>
    </g>
</svg>